# xmcd
#
# Track frame offsets: 
#        150
#        9995
#        28852
#        42796
#        59388
#        73679
#        86405
#        101155
#        112845
#        126454
#        142180
#
# Disc length: 2112 seconds
#
# Revision: 0
# Processed by: cddbd v1.5.2PL0 Copyright (c) Steve Scherf et al.
# Submitted via: ExactAudioCopy v0.90b4
#
DISCID=97083e0b
DTITLE=Nico and the Rythm Dudes - Meet me in the Basement
DYEAR=2009
DGENRE=R&B
TTITLE0=5 Months, 2 Weeks, 2 Days
TTITLE1=Kidney Stew Blues
TTITLE2=Women and Cadillacs
TTITLE3=Evenin'
TTITLE4=Meeet me in the Basement
TTITLE5=You came a long way from St. Louis
TTITLE6=RM Blues
TTITLE7=Sausage Rock
TTITLE8=Texas Hop
TTITLE9=Polish Woman
TTITLE10=Ho Ho Ho
EXTD=
EXTT0=
EXTT1=
EXTT2=
EXTT3=
EXTT4=
EXTT5=
EXTT6=
EXTT7=
EXTT8=
EXTT9=
EXTT10=
PLAYORDER=
